# xmcd
#
# Track frame offsets: 
#        150
#        15600
#        34425
#        56025
#        77100
#        90685
#        108600
#        123150
#        145285
#        162900
#
# Disc length: 2436 seconds
#
# Revision: 0
# Processed by: cddbd v1.5.1PL0 Copyright (c) Steve Scherf et al.
# Submitted via: ExactAudioCopy v0.95a5
#
DISCID=8509820a
DTITLE=Kiko Rodriguez - Vete Y Vuelve Otra Vez
DYEAR=2005
DGENRE=Latin
TTITLE0=Bandida
TTITLE1=10 De Diciembre
TTITLE2=Hasta Cuando Señor
TTITLE3=Un Beso
TTITLE4=Mi Odio
TTITLE5=No Me Olvide De Tu Amor
TTITLE6=Vete Y Vuelve Otra Vez
TTITLE7=Homenaje Al Jibarito
TTITLE8=No Soy Bandolero
TTITLE9=Toma Mambo
EXTD=
EXTT0=
EXTT1=
EXTT2=
EXTT3=
EXTT4=
EXTT5=
EXTT6=
EXTT7=
EXTT8=
EXTT9=
PLAYORDER=
